<?xml version="1.0" encoding="UTF-8"?>
<svg xmlns="http://www.w3.org/2000/svg" xmlns:xlink="http://www.w3.org/1999/xlink" width="30px" height="38px" viewBox="0 0 30 38" version="1.1">
<g id="surface1">
<path style=" stroke:none;fill-rule:nonzero;fill:rgb(0%,0%,0%);fill-opacity:1;" d="M 20.714844 0 C 21.800781 0 22.839844 0.429688 23.609375 1.191406 L 28.828125 6.386719 C 29.59375 7.152344 30.027344 8.1875 30.027344 9.265625 L 30.027344 12.214844 L 30.03125 12.214844 L 30.03125 27.144531 C 30.03125 30.140625 27.589844 32.570312 24.574219 32.570312 L 10.9375 32.570312 C 7.921875 32.570312 5.480469 30.140625 5.480469 27.144531 L 5.480469 5.429688 C 5.480469 2.429688 7.921875 0 10.9375 0 Z M 27.304688 27.144531 L 27.304688 13.738281 L 27.300781 13.738281 L 27.300781 10.855469 L 23.207031 10.855469 C 20.949219 10.855469 19.117188 9.035156 19.117188 6.785156 L 19.117188 2.714844 L 10.9375 2.714844 C 9.429688 2.714844 8.207031 3.929688 8.207031 5.429688 L 8.207031 27.144531 C 8.207031 28.640625 9.429688 29.855469 10.9375 29.855469 L 24.574219 29.855469 C 26.082031 29.855469 27.304688 28.640625 27.304688 27.144531 Z M 21.84375 3.277344 L 21.84375 6.785156 C 21.84375 7.535156 22.457031 8.144531 23.207031 8.144531 L 26.734375 8.144531 Z M 0.03125 27.714844 C 0.03125 33.394531 4.65625 38 10.367188 38 L 21.847656 38 C 23.355469 38 24.574219 36.785156 24.574219 35.285156 L 10.941406 35.285156 C 6.421875 35.285156 2.757812 31.640625 2.757812 27.144531 L 2.757812 5.429688 C 1.25 5.429688 0.03125 6.644531 0.03125 8.144531 Z M 0.03125 27.714844 "/>
<path style=" stroke:none;fill-rule:nonzero;fill:rgb(0%,0%,0%);fill-opacity:1;" d="M 0.0078125 8.117188 C 0.0078125 6.617188 1.269531 5.457031 2.773438 5.457031 L 2.789062 27.125 C 2.789062 31.625 6.425781 35.253906 10.941406 35.253906 L 24.554688 35.261719 C 24.554688 36.757812 23.371094 38.03125 21.867188 38.03125 L 10.363281 38.035156 C 4.652344 38.035156 0 33.410156 0 27.730469 Z M 0.0078125 8.117188 "/>
</g>
</svg>
