<?xml version="1.0" encoding="UTF-8"?>
<svg xmlns="http://www.w3.org/2000/svg" xmlns:xlink="http://www.w3.org/1999/xlink" width="30px" height="40px" viewBox="0 0 30 40" version="1.1">
<g id="surface1">
<path style=" stroke:none;fill-rule:nonzero;fill:rgb(0%,0%,0%);fill-opacity:1;" d="M 23.664062 5.839844 C 27.128906 5.839844 30.003906 8.609375 30.074219 11.976562 C 30.074219 14.964844 27.941406 17.519531 24.992188 18.105469 C 24.851562 20.585938 23.664062 22.269531 21.53125 23.875 C 19.316406 25.550781 16.519531 26.058594 14.527344 26.425781 C 12.09375 26.863281 10.695312 27.742188 9.878906 28.617188 C 11.644531 29.785156 12.679688 31.6875 12.679688 33.800781 C 12.679688 37.226562 9.800781 40.078125 6.339844 40.078125 C 2.878906 40.078125 0 37.226562 0 33.800781 C 0 32.34375 0.515625 30.878906 1.550781 29.714844 C 2.433594 28.765625 3.613281 28.03125 4.941406 27.742188 L 4.941406 12.414062 C 3.613281 12.117188 2.433594 11.46875 1.550781 10.441406 C 0.59375 9.269531 0 7.8125 0 6.277344 C 0 2.847656 2.886719 0 6.347656 0 C 9.808594 0 12.6875 2.847656 12.679688 6.277344 C 12.679688 7.882812 12.09375 9.347656 11.058594 10.511719 C 10.09375 11.539062 8.84375 12.265625 7.515625 12.484375 L 7.515625 27.734375 C 8.402344 26.566406 10.394531 24.8125 14.078125 24.15625 C 15.769531 23.867188 18.132812 23.429688 19.972656 22.042969 C 21.453125 20.875 22.335938 19.921875 22.410156 18.246094 C 19.460938 17.667969 17.328125 15.105469 17.328125 12.117188 C 17.328125 8.6875 20.203125 5.839844 23.664062 5.839844 Z M 6.347656 10.144531 C 8.480469 10.144531 10.179688 8.46875 10.179688 6.347656 C 10.179688 4.226562 8.410156 2.550781 6.347656 2.550781 C 4.207031 2.550781 2.511719 4.304688 2.511719 6.347656 C 2.511719 8.390625 4.207031 10.144531 6.347656 10.144531 Z M 6.269531 30.152344 C 4.125 30.152344 2.433594 31.828125 2.433594 33.949219 C 2.433594 36.070312 4.207031 37.746094 6.269531 37.746094 C 8.410156 37.746094 10.101562 35.992188 10.101562 33.949219 C 10.101562 31.898438 8.410156 30.222656 6.269531 30.152344 Z M 27.5 12.046875 C 27.5 9.925781 25.730469 8.25 23.664062 8.25 C 21.523438 8.25 19.832031 10.003906 19.832031 12.046875 C 19.832031 14.167969 21.601562 15.84375 23.664062 15.84375 C 25.730469 15.84375 27.429688 14.160156 27.5 12.046875 Z M 27.5 12.046875 "/>
</g>
</svg>
