<svg version="1.1" xmlns="http://www.w3.org/2000/svg" xmlns:xlink="http://www.w3.org/1999/xlink" width="94.85417" height="92" viewBox="0,0,94.85417,92"><g transform="translate(-192.57291,-134)"><g data-paper-data="{&quot;isPaintingLayer&quot;:true}" fill-rule="nonzero" stroke-linejoin="miter" stroke-miterlimit="10" stroke-dasharray="" stroke-dashoffset="0" style="mix-blend-mode: normal"><path d="M212.92709,156.51128v-20.01128c0,0 43.90394,0 56.8125,0c0.34086,0 15.1875,16.96105 15.1875,17.33333c0,13.72535 0,69.66667 0,69.66667h-72v-13.10859" fill="none" stroke="#ffffff" stroke-width="5" stroke-linecap="butt"/><path d="M284.07291,155.16667l-14,0.33333v-19" fill="none" stroke="#ffffff" stroke-width="5" stroke-linecap="round"/><path d="M195.07292,207.05959v-46.15889l32.71717,-5.73402v55.33333z" fill="none" stroke="#ffffff" stroke-width="5" stroke-linecap="butt"/><text transform="translate(204.07292,182.5) scale(0.5,0.5)" font-size="40" xml:space="preserve" fill="none" fill-rule="nonzero" stroke="none" stroke-width="1" stroke-linecap="butt" stroke-linejoin="miter" stroke-miterlimit="10" stroke-dasharray="" stroke-dashoffset="0" font-family="Sans Serif" font-weight="normal" text-anchor="start" style="mix-blend-mode: normal"><tspan x="0" dy="0">WP</tspan></text><text transform="translate(200.07292,190.2686) scale(0.44245,0.44245)" font-size="40" xml:space="preserve" fill="#ffffff" fill-rule="nonzero" stroke="none" stroke-width="1" stroke-linecap="butt" stroke-linejoin="miter" stroke-miterlimit="10" stroke-dasharray="" stroke-dashoffset="0" font-family="Sans Serif" font-weight="normal" text-anchor="start" style="mix-blend-mode: normal"><tspan x="0" dy="0">PT</tspan></text><path d="M232.52083,169.6v-10.33333h8.80435v10.33333z" fill="none" stroke="#ffffff" stroke-width="2.5" stroke-linecap="butt"/><path d="M232.71648,185.6v-10.33334h8.80435v10.33334z" fill="none" stroke="#ffffff" stroke-width="2.5" stroke-linecap="butt"/><path d="M232.71648,200.6v-10.33334h8.80435v10.33334z" fill="none" stroke="#ffffff" stroke-width="2.5" stroke-linecap="butt"/><path d="M232.71648,215.6v-10.33334h8.80435v10.33334z" fill="none" stroke="#ffffff" stroke-width="2.5" stroke-linecap="butt"/><path d="M245.1875,215.6v-55.94927h33.54838v55.94927z" fill="none" stroke="#ffffff" stroke-width="2.5" stroke-linecap="butt"/><path d="M251.52083,188.6h20.33333" fill="none" stroke="#ffffff" stroke-width="2.5" stroke-linecap="round"/><path d="M251.52084,193.6h20.33333" fill="none" stroke="#ffffff" stroke-width="2.5" stroke-linecap="round"/><path d="M251.52084,198.6h20.33333" fill="none" stroke="#ffffff" stroke-width="2.5" stroke-linecap="round"/><path d="M251.52084,203.6h20.33333" fill="none" stroke="#ffffff" stroke-width="2.5" stroke-linecap="round"/><path d="M251.52084,208.6h20.33333" fill="none" stroke="#ffffff" stroke-width="2.5" stroke-linecap="round"/><path d="M260.85417,183.6v-19.66667h12.33333v19.66667z" fill="none" stroke="#ffffff" stroke-width="2.5" stroke-linecap="butt"/><path d="M250.52084,163.6h7" fill="none" stroke="#ffffff" stroke-width="2.5" stroke-linecap="round"/><path d="M250.52084,168.6h7" fill="none" stroke="#ffffff" stroke-width="2.5" stroke-linecap="round"/><path d="M250.52084,173.6h7" fill="none" stroke="#ffffff" stroke-width="2.5" stroke-linecap="round"/><path d="M250.52084,178.6h7" fill="none" stroke="#ffffff" stroke-width="2.5" stroke-linecap="round"/><path d="M250.52084,183.6h7" fill="none" stroke="#ffffff" stroke-width="2.5" stroke-linecap="round"/></g></g></svg>
