<svg version="1.1" xmlns="http://www.w3.org/2000/svg" xmlns:xlink="http://www.w3.org/1999/xlink" width="94.85417" height="92" viewBox="0,0,94.85417,92"><g transform="translate(-192.57291,-134)"><g data-paper-data="{&quot;isPaintingLayer&quot;:true}" fill-rule="nonzero" stroke-linejoin="miter" stroke-miterlimit="10" stroke-dasharray="" stroke-dashoffset="0" style="mix-blend-mode: normal"><path d="M212.92709,156.51128v-20.01128c0,0 43.90394,0 56.8125,0c0.34086,0 15.1875,16.96105 15.1875,17.33333c0,13.72535 0,69.66667 0,69.66667h-72v-13.10859" fill="none" stroke="#ffffff" stroke-width="5" stroke-linecap="butt"/><path d="M284.07291,155.16667l-14,0.33333v-19" fill="none" stroke="#ffffff" stroke-width="5" stroke-linecap="round"/><path d="M195.07292,207.05959v-46.15889l32.71717,-5.73402v55.33333z" fill="none" stroke="#ffffff" stroke-width="5" stroke-linecap="butt"/><text transform="translate(204.07292,182.5) scale(0.5,0.5)" font-size="40" xml:space="preserve" fill="none" fill-rule="nonzero" stroke="none" stroke-width="1" stroke-linecap="butt" stroke-linejoin="miter" stroke-miterlimit="10" stroke-dasharray="" stroke-dashoffset="0" font-family="Sans Serif" font-weight="normal" text-anchor="start" style="mix-blend-mode: normal"><tspan x="0" dy="0">WP</tspan></text><text transform="translate(200.07292,189.4991) scale(0.37478,0.37478)" font-size="40" xml:space="preserve" fill="#ffffff" fill-rule="nonzero" stroke="none" stroke-width="1" stroke-linecap="butt" stroke-linejoin="miter" stroke-miterlimit="10" stroke-dasharray="" stroke-dashoffset="0" font-family="Sans Serif" font-weight="normal" text-anchor="start" style="mix-blend-mode: normal"><tspan x="0" dy="0">QS</tspan></text><path d="M233.52083,161.43333c0,-2.11709 1.71624,-3.83333 3.83333,-3.83333c2.11709,0 3.83333,1.71624 3.83333,3.83333c0,2.11709 -1.71624,3.83333 -3.83333,3.83333c-2.11709,0 -3.83333,-1.71624 -3.83333,-3.83333z" fill="#ffffff" stroke="none" stroke-width="0" stroke-linecap="butt"/><path d="M244.52083,161.6h33.66667" fill="none" stroke="#ffffff" stroke-width="2.5" stroke-linecap="round"/><path d="M233.52084,171.43334c0,-2.11709 1.71624,-3.83334 3.83333,-3.83334c2.11709,0 3.83334,1.71625 3.83334,3.83334c0,2.11709 -1.71625,3.83334 -3.83334,3.83334c-2.11709,0 -3.83333,-1.71625 -3.83333,-3.83334z" fill="#ffffff" stroke="none" stroke-width="0" stroke-linecap="butt"/><path d="M244.52084,171.6h33.66666" fill="none" stroke="#ffffff" stroke-width="2.5" stroke-linecap="round"/><path d="M233.52084,181.43334c0,-2.11709 1.71624,-3.83334 3.83333,-3.83334c2.11709,0 3.83334,1.71625 3.83334,3.83334c0,2.11709 -1.71625,3.83334 -3.83334,3.83334c-2.11709,0 -3.83333,-1.71625 -3.83333,-3.83334z" fill="#ffffff" stroke="none" stroke-width="0" stroke-linecap="butt"/><path d="M244.52084,181.6h33.66666" fill="none" stroke="#ffffff" stroke-width="2.5" stroke-linecap="round"/><path d="M233.52084,191.43334c0,-2.11709 1.71624,-3.83334 3.83333,-3.83334c2.11709,0 3.83334,1.71625 3.83334,3.83334c0,2.11709 -1.71625,3.83334 -3.83334,3.83334c-2.11709,0 -3.83333,-1.71625 -3.83333,-3.83334z" fill="#ffffff" stroke="none" stroke-width="0" stroke-linecap="butt"/><path d="M244.52084,191.6h33.66666" fill="none" stroke="#ffffff" stroke-width="2.5" stroke-linecap="round"/><path d="M233.52084,201.43334c0,-2.11709 1.71624,-3.83334 3.83333,-3.83334c2.11709,0 3.83334,1.71625 3.83334,3.83334c0,2.11709 -1.71625,3.83334 -3.83334,3.83334c-2.11709,0 -3.83333,-1.71625 -3.83333,-3.83334z" fill="#ffffff" stroke="none" stroke-width="0" stroke-linecap="butt"/><path d="M244.52084,201.6h33.66666" fill="none" stroke="#ffffff" stroke-width="2.5" stroke-linecap="round"/><path d="M233.52084,211.43334c0,-2.11709 1.71624,-3.83334 3.83333,-3.83334c2.11709,0 3.83334,1.71625 3.83334,3.83334c0,2.11709 -1.71625,3.83334 -3.83334,3.83334c-2.11709,0 -3.83333,-1.71625 -3.83333,-3.83334z" fill="#ffffff" stroke="none" stroke-width="0" stroke-linecap="butt"/><path d="M244.52084,211.6h33.66666" fill="none" stroke="#ffffff" stroke-width="2.5" stroke-linecap="round"/></g></g></svg>
