<svg version="1.1" xmlns="http://www.w3.org/2000/svg" xmlns:xlink="http://www.w3.org/1999/xlink" width="94.85417" height="92" viewBox="0,0,94.85417,92"><g transform="translate(-192.57292,-134)"><g data-paper-data="{&quot;isPaintingLayer&quot;:true}" fill-rule="nonzero" stroke="#ffe500" stroke-linejoin="miter" stroke-miterlimit="10" stroke-dasharray="" stroke-dashoffset="0" style="mix-blend-mode: normal"><path d="M212.9271,156.51128v-20.01128c0,0 43.90394,0 56.8125,0c0.34086,0 15.1875,16.96105 15.1875,17.33333c0,13.72535 0,69.66667 0,69.66667h-72v-13.10859" fill="none" stroke-width="5" stroke-linecap="butt"/><path d="M284.07292,155.16667l-14,0.33333v-19" fill="none" stroke-width="5" stroke-linecap="round"/><path d="M195.07293,207.05959v-46.15889l32.71717,-5.73402v55.33333z" fill="none" stroke-width="5" stroke-linecap="butt"/><text transform="translate(200.07293,190.2686) scale(0.44245,0.44245)" font-size="40" xml:space="preserve" fill="#ffe500" fill-rule="nonzero" stroke="#ffe500" stroke-width="1" stroke-linecap="butt" stroke-linejoin="miter" stroke-miterlimit="10" stroke-dasharray="" stroke-dashoffset="0" font-family="Sans Serif" font-weight="normal" text-anchor="start" style="mix-blend-mode: normal"><tspan x="0" dy="0">PT</tspan></text><path d="M254.52084,181.6v-19.66667h20.33333v19.66667z" fill="none" stroke-width="2.5" stroke-linecap="butt"/><path d="M276.18749,186.6h-39.21874" fill="none" stroke-width="2.5" stroke-linecap="round"/><path d="M236.96876,191.6h39.21874" fill="none" stroke-width="2.5" stroke-linecap="round"/><path d="M249.65626,161.6h-12.46875" fill="none" stroke-width="2.5" stroke-linecap="round"/><path d="M249.65626,166.6h-12.46875" fill="none" stroke-width="2.5" stroke-linecap="round"/><path d="M249.65626,171.6h-12.46875" fill="none" stroke-width="2.5" stroke-linecap="round"/><path d="M237.18751,176.6h12.46875" fill="none" stroke-width="2.5" stroke-linecap="round"/><path d="M249.65626,181.6h-12.46875" fill="none" stroke-width="2.5" stroke-linecap="round"/><path d="M237.30033,212.36108v-16.20994h38.59265v16.20994z" fill="none" stroke-width="2.5" stroke-linecap="butt"/><path d="M238.0119,201.88492h36.33333" fill="none" stroke-width="2.5" stroke-linecap="round"/><path d="M237.34523,207.21825h36.66667" fill="none" stroke-width="2.5" stroke-linecap="round"/><path d="M247.67857,195.88492v15.33333" fill="none" stroke-width="2.5" stroke-linecap="round"/></g></g></svg>
